<svg  viewBox="0 0 194 54"  xmlns="http://www.w3.org/2000/svg">
<path d="M4.5 39.405C2.79 39.405 1.935 38.535 1.935 36.795C1.935 34.875 3.765 30.78 7.425 24.51H7.515C7.725 24.66 7.98 24.735 8.28 24.735C8.91 24.735 9.69 24.435 10.62 23.835L10.665 23.925C9.465 25.245 8.07 27.42 6.48 30.45C4.74 33.75 3.87 36.12 3.87 37.56C3.87 38.43 4.215 38.865 4.905 38.865C5.895 38.865 7.08 37.935 8.46 36.075C9.39 34.815 10.215 33.435 10.935 31.935C11.355 31.125 11.865 30.12 12.465 28.92C13.095 27.69 13.83 26.28 14.67 24.69L14.76 24.645C15.15 24.855 15.54 24.96 15.93 24.96C16.65 24.96 17.205 24.66 17.595 24.06L17.685 24.15L13.995 30.585C12.675 32.895 12.015 35.025 12.015 36.975C12.015 38.235 12.435 38.865 13.275 38.865C15.465 38.865 17.775 36.9 20.205 32.97C19.845 32.43 19.665 31.545 19.665 30.315C19.665 29.955 19.68 29.595 19.71 29.235C19.77 28.845 19.83 28.455 19.89 28.065C20.04 27.285 20.265 26.55 20.565 25.86C21.015 24.81 21.495 24.285 22.005 24.285C22.575 24.285 22.86 24.78 22.86 25.77C22.86 26.61 22.65 27.66 22.23 28.92C21.84 30.18 21.255 31.56 20.475 33.06C20.565 33.45 20.775 33.84 21.105 34.23C21.465 34.62 21.87 34.815 22.32 34.815C23.61 34.815 24.78 33.75 25.83 31.62C25.92 31.44 26.01 31.38 26.1 31.44C26.22 31.5 26.235 31.605 26.145 31.755C25.575 32.865 24.99 33.705 24.39 34.275C23.82 34.845 23.145 35.13 22.365 35.13C21.435 35.13 20.745 34.605 20.295 33.555C19.905 34.305 19.47 35.01 18.99 35.67C18.51 36.3 17.985 36.87 17.415 37.38C16.035 38.64 14.58 39.27 13.05 39.27C10.95 39.27 9.9 38.31 9.9 36.39C9.9 36.06 9.93 35.715 9.99 35.355C10.05 34.965 10.14 34.575 10.26 34.185C8.4 37.665 6.48 39.405 4.5 39.405ZM22.9563 39.72L22.8663 39.675C24.6663 33.675 27.0513 27.9 30.0213 22.35C34.3413 14.28 38.4213 10.245 42.2613 10.245C43.6713 10.245 44.3763 10.935 44.3763 12.315C44.3763 13.965 43.4463 15.855 41.5863 17.985C40.0263 19.695 38.3613 21.075 36.5913 22.125C35.2113 22.935 33.6213 23.655 31.8213 24.285C31.5513 24.375 31.3563 24.405 31.2363 24.375C30.3063 26.025 29.4663 27.63 28.7163 29.19C27.9963 30.75 27.3513 32.28 26.7813 33.78C28.0413 31.38 29.3913 29.355 30.8313 27.705C32.9013 25.335 34.8513 24.15 36.6813 24.15C38.1813 24.15 38.9313 24.69 38.9313 25.77C38.9313 26.82 37.9263 28.785 35.9163 31.665C34.1463 34.155 33.2613 36.135 33.2613 37.605C33.2613 38.355 33.5913 38.73 34.2513 38.73C34.7613 38.73 35.3463 38.565 36.0063 38.235C36.6663 37.905 37.3563 37.365 38.0763 36.615C39.0063 35.595 39.7113 34.65 40.1913 33.78C40.7013 32.91 41.1513 32.115 41.5413 31.395C41.6313 31.245 41.7213 31.185 41.8113 31.215C41.9013 31.245 41.9163 31.335 41.8563 31.485C41.4063 32.415 40.8663 33.39 40.2363 34.41C39.6363 35.4 39.0063 36.24 38.3463 36.93C37.5063 37.83 36.6663 38.445 35.8263 38.775C35.0163 39.105 34.2213 39.27 33.4413 39.27C31.8513 39.27 31.0563 38.505 31.0563 36.975C31.0563 35.625 31.5813 34.065 32.6313 32.295C32.8713 31.905 33.2313 31.365 33.7113 30.675C34.2213 29.985 34.8513 29.145 35.6013 28.155C36.6513 26.745 37.1763 25.83 37.1763 25.41C37.1763 24.87 36.8313 24.6 36.1413 24.6C34.8213 24.6 33.2463 25.605 31.4163 27.615C30.1863 28.965 29.0463 30.54 27.9963 32.34C27.5163 33.15 27.0213 34.11 26.5113 35.22C26.0013 36.33 25.4613 37.59 24.8913 39L24.8013 39.045C24.5613 38.895 24.3363 38.82 24.1263 38.82C23.5863 38.82 23.1963 39.12 22.9563 39.72ZM31.4613 23.97C31.5813 23.97 31.7013 23.955 31.8213 23.925C32.5113 23.775 33.2163 23.535 33.9363 23.205C34.6863 22.875 35.4363 22.47 36.1863 21.99C36.9963 21.45 37.8063 20.835 38.6163 20.145C39.4263 19.425 40.2363 18.615 41.0463 17.715C43.0263 15.555 44.0163 13.725 44.0163 12.225C44.0163 11.175 43.4913 10.65 42.4413 10.65C41.0613 10.65 39.0213 12.51 36.3213 16.23C35.5113 17.37 34.6863 18.585 33.8463 19.875C33.0363 21.165 32.2413 22.53 31.4613 23.97ZM37.883 49.755C36.173 49.755 35.318 49.095 35.318 47.775C35.318 46.305 36.548 44.925 39.008 43.635C39.308 43.485 39.788 43.305 40.448 43.095C41.138 42.885 41.993 42.63 43.013 42.33C43.733 42.15 44.378 41.97 44.948 41.79C45.518 41.64 46.028 41.49 46.478 41.34C46.628 40.92 46.823 40.41 47.063 39.81C47.303 39.24 47.543 38.58 47.783 37.83C47.933 37.44 48.083 36.96 48.233 36.39C48.413 35.79 48.638 35.1 48.908 34.32C49.178 33.54 49.523 32.685 49.943 31.755C50.393 30.825 50.918 29.85 51.518 28.83C51.218 29.19 50.858 29.67 50.438 30.27C50.048 30.84 49.598 31.515 49.088 32.295C47.648 34.515 46.673 35.925 46.163 36.525C44.693 38.325 43.358 39.225 42.158 39.225C41.378 39.225 40.733 38.97 40.223 38.46C39.743 37.89 39.503 37.23 39.503 36.48C39.503 35.13 39.998 33.6 40.988 31.89C41.138 31.65 41.438 31.2 41.888 30.54C42.338 29.85 42.968 28.92 43.778 27.75C44.768 26.31 45.263 25.275 45.263 24.645C45.263 24.315 45.068 24.15 44.678 24.15C44.318 24.15 43.973 24.27 43.643 24.51C43.283 24.75 43.073 25.035 43.013 25.365L42.923 25.455H42.788L42.698 25.41C42.758 25.02 43.013 24.66 43.463 24.33C43.883 24.03 44.303 23.835 44.723 23.745C44.873 23.715 45.023 23.7 45.173 23.7C45.353 23.67 45.518 23.655 45.668 23.655C46.778 23.655 47.333 24.09 47.333 24.96C47.333 26.13 46.328 28.08 44.318 30.81C42.428 33.45 41.483 35.625 41.483 37.335C41.483 38.265 41.858 38.73 42.608 38.73C43.808 38.73 45.908 36.42 48.908 31.8C51.428 27.9 53.513 25.35 55.163 24.15C55.943 23.55 56.543 23.25 56.963 23.25C57.293 23.25 57.458 23.415 57.458 23.745C57.458 24.075 57.098 24.36 56.378 24.6C54.728 25.08 53.348 26.265 52.238 28.155C51.818 28.905 51.443 29.715 51.113 30.585C50.783 31.455 50.543 32.4 50.393 33.42C50.273 33.99 50.168 34.56 50.078 35.13C50.018 35.7 49.943 36.27 49.853 36.84C49.733 37.41 49.613 37.965 49.493 38.505C49.373 39.045 49.208 39.63 48.998 40.26C52.928 38.46 55.868 35.58 57.818 31.62C57.908 31.47 57.983 31.395 58.043 31.395C58.193 31.395 58.223 31.515 58.133 31.755C57.143 33.825 55.868 35.625 54.308 37.155C52.778 38.655 50.948 39.855 48.818 40.755C48.068 42.615 47.198 44.16 46.208 45.39C45.248 46.65 43.883 47.745 42.113 48.675C40.763 49.395 39.353 49.755 37.883 49.755ZM38.153 49.35C41.453 49.35 44.138 46.905 46.208 42.015C45.758 42.165 45.248 42.33 44.678 42.51C44.108 42.72 43.478 42.915 42.788 43.095C42.398 43.215 41.903 43.365 41.303 43.545C40.703 43.755 40.013 44.01 39.233 44.31C38.873 44.52 38.528 44.745 38.198 44.985C37.868 45.255 37.538 45.555 37.208 45.885C36.458 46.695 36.083 47.43 36.083 48.09C36.083 48.93 36.773 49.35 38.153 49.35Z"/>
<path d="M63.275 36.8C63.275 37.5 63.025 38.0833 62.525 38.55C62.0417 39.0167 61.4583 39.25 60.775 39.25C60.425 39.25 60.0917 39.1833 59.775 39.05C59.475 38.9333 59.2083 38.7667 58.975 38.55C58.7417 38.3333 58.5583 38.0833 58.425 37.8C58.2917 37.5 58.225 37.175 58.225 36.825C58.225 36.4917 58.2917 36.175 58.425 35.875C58.5583 35.575 58.7417 35.3167 58.975 35.1C59.2083 34.8667 59.475 34.6833 59.775 34.55C60.0917 34.4167 60.425 34.35 60.775 34.35C61.4583 34.35 62.0417 34.5833 62.525 35.05C63.025 35.5167 63.275 36.1 63.275 36.8ZM70.2525 24.95V39H65.9775V24.95H60.9775V21.3H75.2525V24.95H70.2525ZM93.6471 30.075C93.6471 31.475 93.4054 32.7583 92.9221 33.925C92.4387 35.075 91.7637 36.0667 90.8971 36.9C90.0471 37.7167 89.0304 38.35 87.8471 38.8C86.6637 39.25 85.3804 39.475 83.9971 39.475C82.6137 39.475 81.3304 39.25 80.1471 38.8C78.9804 38.35 77.9637 37.7167 77.0971 36.9C76.2471 36.0667 75.5804 35.075 75.0971 33.925C74.6137 32.7583 74.3721 31.475 74.3721 30.075C74.3721 28.6583 74.6137 27.3833 75.0971 26.25C75.5804 25.1 76.2471 24.125 77.0971 23.325C77.9637 22.525 78.9804 21.9083 80.1471 21.475C81.3304 21.0417 82.6137 20.825 83.9971 20.825C85.3804 20.825 86.6637 21.0417 87.8471 21.475C89.0304 21.9083 90.0471 22.525 90.8971 23.325C91.7637 24.125 92.4387 25.1 92.9221 26.25C93.4054 27.3833 93.6471 28.6583 93.6471 30.075ZM89.0721 30.075C89.0721 29.3083 88.9471 28.5917 88.6971 27.925C88.4471 27.2583 88.0971 26.6917 87.6471 26.225C87.2137 25.7417 86.6804 25.3667 86.0471 25.1C85.4304 24.8167 84.7471 24.675 83.9971 24.675C83.2471 24.675 82.5637 24.8167 81.9471 25.1C81.3304 25.3667 80.7971 25.7417 80.3471 26.225C79.8971 26.6917 79.5471 27.2583 79.2971 27.925C79.0637 28.5917 78.9471 29.3083 78.9471 30.075C78.9471 30.875 79.0721 31.6167 79.3221 32.3C79.5721 32.9667 79.9137 33.5417 80.3471 34.025C80.7971 34.5083 81.3304 34.8917 81.9471 35.175C82.5637 35.4417 83.2471 35.575 83.9971 35.575C84.7471 35.575 85.4304 35.4417 86.0471 35.175C86.6637 34.8917 87.1971 34.5083 87.6471 34.025C88.0971 33.5417 88.4471 32.9667 88.6971 32.3C88.9471 31.6167 89.0721 30.875 89.0721 30.075ZM94.9617 39V21.3H99.2617V39H94.9617ZM101.421 39V21.3H105.721V39H101.421ZM121.68 33.85C121.68 34.8167 121.488 35.6333 121.105 36.3C120.721 36.95 120.213 37.475 119.58 37.875C118.946 38.275 118.221 38.5667 117.405 38.75C116.605 38.9167 115.78 39 114.93 39H107.88V21.3H114.93C115.613 21.3 116.313 21.375 117.03 21.525C117.746 21.6583 118.396 21.9 118.98 22.25C119.563 22.5833 120.038 23.0417 120.405 23.625C120.771 24.2083 120.955 24.95 120.955 25.85C120.955 26.8333 120.688 27.65 120.155 28.3C119.621 28.9333 118.921 29.3917 118.055 29.675V29.725C118.555 29.8083 119.021 29.9667 119.455 30.2C119.905 30.4167 120.288 30.7 120.605 31.05C120.938 31.4 121.196 31.8083 121.38 32.275C121.58 32.7417 121.68 33.2667 121.68 33.85ZM116.83 26.425C116.83 25.825 116.596 25.3917 116.13 25.125C115.68 24.8417 115.005 24.7 114.105 24.7H112.005V28.35H114.305C115.105 28.35 115.721 28.1917 116.155 27.875C116.605 27.5417 116.83 27.0583 116.83 26.425ZM117.405 33.45C117.405 32.7167 117.13 32.2083 116.58 31.925C116.03 31.6417 115.296 31.5 114.38 31.5H112.005V35.55H114.405C114.738 35.55 115.08 35.525 115.43 35.475C115.796 35.4083 116.121 35.3 116.405 35.15C116.705 35 116.946 34.7917 117.13 34.525C117.313 34.2417 117.405 33.8833 117.405 33.45ZM123.006 39V21.3H127.306V39H123.006ZM137.04 24.95V39H132.765V24.95H127.765V21.3H142.04V24.95H137.04ZM144.988 36.8C144.988 37.5 144.738 38.0833 144.238 38.55C143.755 39.0167 143.171 39.25 142.488 39.25C142.138 39.25 141.805 39.1833 141.488 39.05C141.188 38.9333 140.921 38.7667 140.688 38.55C140.455 38.3333 140.271 38.0833 140.138 37.8C140.005 37.5 139.938 37.175 139.938 36.825C139.938 36.4917 140.005 36.175 140.138 35.875C140.271 35.575 140.455 35.3167 140.688 35.1C140.921 34.8667 141.188 34.6833 141.488 34.55C141.805 34.4167 142.138 34.35 142.488 34.35C143.171 34.35 143.755 34.5833 144.238 35.05C144.738 35.5167 144.988 36.1 144.988 36.8ZM154.883 30.575C154.65 30.275 154.333 30.0333 153.933 29.85C153.533 29.6667 153.125 29.575 152.708 29.575C152.275 29.575 151.883 29.6667 151.533 29.85C151.183 30.0167 150.883 30.25 150.633 30.55C150.383 30.8333 150.183 31.1667 150.033 31.55C149.9 31.9333 149.833 32.3417 149.833 32.775C149.833 33.2083 149.9 33.6167 150.033 34C150.166 34.3833 150.358 34.725 150.608 35.025C150.875 35.3083 151.183 35.5333 151.533 35.7C151.9 35.8667 152.308 35.95 152.758 35.95C153.175 35.95 153.583 35.875 153.983 35.725C154.4 35.5583 154.733 35.325 154.983 35.025L157.258 37.8C156.741 38.3 156.075 38.6917 155.258 38.975C154.441 39.2583 153.575 39.4 152.658 39.4C151.675 39.4 150.758 39.25 149.908 38.95C149.058 38.65 148.316 38.2167 147.683 37.65C147.066 37.0667 146.575 36.3667 146.208 35.55C145.858 34.7333 145.683 33.8083 145.683 32.775C145.683 31.7583 145.858 30.8417 146.208 30.025C146.575 29.2083 147.066 28.5167 147.683 27.95C148.316 27.3667 149.058 26.925 149.908 26.625C150.758 26.3083 151.666 26.15 152.633 26.15C153.083 26.15 153.525 26.1917 153.958 26.275C154.408 26.3583 154.833 26.475 155.233 26.625C155.65 26.7583 156.025 26.9333 156.358 27.15C156.708 27.35 157.008 27.575 157.258 27.825L154.883 30.575ZM170.581 32.725C170.581 33.7417 170.398 34.6667 170.031 35.5C169.665 36.3167 169.165 37.0167 168.531 37.6C167.898 38.1667 167.165 38.6083 166.331 38.925C165.498 39.2417 164.606 39.4 163.656 39.4C162.723 39.4 161.831 39.2417 160.981 38.925C160.148 38.6083 159.415 38.1667 158.781 37.6C158.165 37.0167 157.673 36.3167 157.306 35.5C156.94 34.6667 156.756 33.7417 156.756 32.725C156.756 31.7083 156.94 30.7917 157.306 29.975C157.673 29.1583 158.165 28.4667 158.781 27.9C159.415 27.3333 160.148 26.9 160.981 26.6C161.831 26.3 162.723 26.15 163.656 26.15C164.606 26.15 165.498 26.3 166.331 26.6C167.165 26.9 167.898 27.3333 168.531 27.9C169.165 28.4667 169.665 29.1583 170.031 29.975C170.398 30.7917 170.581 31.7083 170.581 32.725ZM166.631 32.725C166.631 32.325 166.565 31.9333 166.431 31.55C166.298 31.1667 166.106 30.8333 165.856 30.55C165.606 30.25 165.298 30.0083 164.931 29.825C164.565 29.6417 164.14 29.55 163.656 29.55C163.173 29.55 162.748 29.6417 162.381 29.825C162.015 30.0083 161.706 30.25 161.456 30.55C161.223 30.8333 161.04 31.1667 160.906 31.55C160.79 31.9333 160.731 32.325 160.731 32.725C160.731 33.125 160.79 33.5167 160.906 33.9C161.04 34.2833 161.231 34.6333 161.481 34.95C161.731 35.25 162.04 35.4917 162.406 35.675C162.773 35.8583 163.198 35.95 163.681 35.95C164.165 35.95 164.59 35.8583 164.956 35.675C165.323 35.4917 165.631 35.25 165.881 34.95C166.131 34.6333 166.315 34.2833 166.431 33.9C166.565 33.5167 166.631 33.125 166.631 32.725ZM187.577 39V32.2C187.577 31.85 187.552 31.5167 187.502 31.2C187.452 30.8667 187.36 30.5833 187.227 30.35C187.094 30.1167 186.91 29.9333 186.677 29.8C186.46 29.65 186.169 29.575 185.802 29.575C185.452 29.575 185.144 29.65 184.877 29.8C184.627 29.95 184.41 30.15 184.227 30.4C184.06 30.65 183.935 30.9417 183.852 31.275C183.769 31.5917 183.727 31.925 183.727 32.275V39H179.627V31.9C179.627 31.1833 179.485 30.6167 179.202 30.2C178.919 29.7833 178.469 29.575 177.852 29.575C177.202 29.575 176.694 29.8333 176.327 30.35C175.977 30.8667 175.802 31.5 175.802 32.25V39H171.677V26.55H175.652V28.275H175.702C175.852 28.0083 176.035 27.75 176.252 27.5C176.485 27.25 176.76 27.0333 177.077 26.85C177.394 26.65 177.744 26.4917 178.127 26.375C178.527 26.2583 178.96 26.2 179.427 26.2C180.327 26.2 181.085 26.3833 181.702 26.75C182.335 27.1167 182.827 27.6417 183.177 28.325C183.594 27.675 184.127 27.1583 184.777 26.775C185.427 26.3917 186.219 26.2 187.152 26.2C188.002 26.2 188.71 26.3583 189.277 26.675C189.86 26.975 190.327 27.375 190.677 27.875C191.027 28.3583 191.277 28.9083 191.427 29.525C191.594 30.125 191.677 30.7167 191.677 31.3V39H187.577Z" />
</svg>
