<svg width="183" height="59" viewBox="0 0 183 59"  xmlns="http://www.w3.org/2000/svg">
<path d="M1.1 41.088C0.689333 41.088 0.410667 40.9413 0.264 40.648C0.146667 40.3547 0.088 40.0467 0.088 39.724V39.548C0.088 39.0787 0.176 38.6093 0.352 38.14C0.528 37.6413 0.689333 37.172 0.836 36.732C1.07067 36.0573 1.34933 35.2213 1.672 34.224C2.024 33.1973 2.332 32.1707 2.596 31.144C2.88933 30.1173 3.036 29.2813 3.036 28.636C3.036 28.372 2.992 28.1227 2.904 27.888C2.84533 27.6533 2.65467 27.5213 2.332 27.492C2.332 27.492 2.30267 27.492 2.244 27.492C2.21467 27.492 2.2 27.4773 2.2 27.448C2.2 27.36 2.34667 27.272 2.64 27.184C2.96267 27.0667 3.344 26.9493 3.784 26.832C4.224 26.7147 4.63467 26.6267 5.016 26.568C5.39733 26.48 5.64667 26.436 5.764 26.436C5.82267 26.436 5.92533 26.4507 6.072 26.48C6.248 26.5093 6.336 26.5973 6.336 26.744C6.336 26.8027 6.32133 26.8467 6.292 26.876C5.99867 27.58 5.66133 28.416 5.28 29.384C4.89867 30.352 4.51733 31.3787 4.136 32.464C3.784 33.52 3.49067 34.5613 3.256 35.588C3.02133 36.5853 2.904 37.48 2.904 38.272C2.904 38.4187 2.93333 38.5653 2.992 38.712C3.05067 38.8587 3.168 38.932 3.344 38.932C3.66667 38.932 4.06267 38.7413 4.532 38.36C5.03067 37.9787 5.38267 37.6853 5.588 37.48C6.70267 36.2773 7.68533 34.928 8.536 33.432C9.38667 31.936 10.0613 30.4253 10.56 28.9C10.6773 28.5773 10.8093 28.24 10.956 27.888C11.1027 27.5067 11.352 27.2573 11.704 27.14C11.8213 27.1107 11.9387 27.0813 12.056 27.052C12.1733 27.0227 12.2907 26.9933 12.408 26.964C12.9067 26.7293 13.4053 26.5533 13.904 26.436C14.432 26.2893 14.96 26.216 15.488 26.216C15.5467 26.216 15.62 26.2453 15.708 26.304C15.796 26.3627 15.8547 26.4213 15.884 26.48V26.612C15.884 26.7 15.8547 26.744 15.796 26.744C15.7373 26.7147 15.6787 26.7 15.62 26.7C15.0627 26.7 14.5493 26.9787 14.08 27.536C13.6107 28.0933 13.2 28.768 12.848 29.56C12.496 30.352 12.2027 31.1293 11.968 31.892C11.7627 32.6547 11.616 33.2413 11.528 33.652C11.4107 34.2093 11.3227 34.7813 11.264 35.368C11.2053 35.9547 11.176 36.5413 11.176 37.128C11.176 37.4213 11.2053 37.8027 11.264 38.272C11.352 38.712 11.6013 38.932 12.012 38.932C12.4227 38.932 12.892 38.712 13.42 38.272C13.948 37.832 14.344 37.4653 14.608 37.172C15.8987 35.764 16.9693 34.2093 17.82 32.508C18.6707 30.8067 19.3747 29.0613 19.932 27.272C20.02 27.008 20.1227 26.7733 20.24 26.568C20.3573 26.3627 20.548 26.1867 20.812 26.04C20.9293 25.9813 21.0907 25.908 21.296 25.82C21.5013 25.7027 21.6627 25.644 21.78 25.644C21.956 25.644 22.044 25.7613 22.044 25.996C22.044 26.3187 21.8973 26.7733 21.604 27.36C21.34 27.9467 21.1347 28.3867 20.988 28.68C20.6653 29.2667 20.2253 30.0733 19.668 31.1C19.1107 32.0973 18.4653 33.168 17.732 34.312C16.9987 35.456 16.2213 36.5413 15.4 37.568C14.5787 38.5653 13.7427 39.4013 12.892 40.076C12.0413 40.7213 11.2347 41.044 10.472 41.044C9.856 41.044 9.47467 40.8093 9.328 40.34C9.21067 39.8707 9.152 39.4013 9.152 38.932C9.152 37.9053 9.18133 36.8933 9.24 35.896C9.328 34.8693 9.47467 33.8573 9.68 32.86C9.12267 33.7693 8.47733 34.7373 7.744 35.764C7.01067 36.7613 6.204 37.7 5.324 38.58C4.444 39.4307 3.52 40.1053 2.552 40.604C2.34667 40.7213 2.112 40.8387 1.848 40.956C1.584 41.044 1.33467 41.088 1.1 41.088ZM18.6134 41.572C18.5547 41.572 18.5254 41.5573 18.5254 41.528C18.5254 41.4107 18.584 41.2933 18.7014 41.176C18.7894 41.088 18.8627 41 18.9214 40.912C19.156 40.5307 19.3907 40.032 19.6254 39.416C19.86 38.7707 20.08 38.1253 20.2854 37.48C20.52 36.8053 20.7107 36.248 20.8574 35.808C21.444 34.0773 22.016 32.332 22.5734 30.572C23.1307 28.812 23.732 27.0667 24.3774 25.336C24.7587 24.3093 25.2134 23.1507 25.7414 21.86C26.2694 20.54 26.8854 19.22 27.5894 17.9C28.2934 16.58 29.0854 15.3773 29.9654 14.292C30.8747 13.1773 31.8867 12.2827 33.0014 11.608C34.116 10.9333 35.348 10.596 36.6974 10.596C38.164 10.596 39.132 10.86 39.6014 11.388C40.1 11.916 40.3494 12.4587 40.3494 13.016C40.3494 13.2507 40.2614 13.3973 40.0854 13.456C39.9387 13.5147 39.8654 13.4413 39.8654 13.236C39.8654 12.62 39.616 12.1213 39.1174 11.74C38.6187 11.3293 38.032 11.124 37.3574 11.124C36.7414 11.124 36.0814 11.3587 35.3774 11.828C34.7027 12.268 34.0574 12.796 33.4414 13.412C32.8254 14.028 32.3414 14.5707 31.9894 15.04C30.816 16.624 29.8627 18.0907 29.1294 19.44C28.396 20.7893 27.7654 22.1093 27.2374 23.4C26.7387 24.6907 26.2547 26.0547 25.7854 27.492C25.3454 28.9293 24.8174 30.528 24.2014 32.288V32.464C24.2014 32.552 24.216 32.596 24.2454 32.596C24.3334 32.508 24.3774 32.464 24.3774 32.464C25.2867 31.2613 26.2107 30.088 27.1494 28.944C28.1174 27.7707 29.276 26.8173 30.6254 26.084C30.8307 25.9667 31.0654 25.8493 31.3294 25.732C31.5934 25.5853 31.8427 25.512 32.0774 25.512C32.4587 25.512 32.6787 25.688 32.7374 26.04C32.8254 26.3627 32.8694 26.6707 32.8694 26.964C32.8694 27.58 32.664 28.3867 32.2534 29.384C31.872 30.352 31.4027 31.408 30.8454 32.552C30.3174 33.696 29.848 34.8253 29.4374 35.94C29.056 37.0253 28.8654 38.008 28.8654 38.888C28.8654 39.0053 28.88 39.152 28.9094 39.328C28.968 39.4747 29.0854 39.548 29.2614 39.548C29.5547 39.548 29.9507 39.3133 30.4494 38.844C30.948 38.3453 31.4174 37.8173 31.8574 37.26C32.2974 36.6733 32.576 36.248 32.6934 35.984C32.8107 36.1013 32.8694 36.1893 32.8694 36.248C32.8694 36.512 32.6054 36.9373 32.0774 37.524C31.5787 38.0813 30.9774 38.668 30.2734 39.284C29.5694 39.9 28.8947 40.428 28.2494 40.868C27.604 41.308 27.1494 41.528 26.8854 41.528C26.592 41.528 26.3867 41.308 26.2694 40.868C26.1814 40.428 26.1374 40.1053 26.1374 39.9C26.1374 39.3427 26.2547 38.6387 26.4894 37.788C26.7534 36.9373 27.0614 36.0427 27.4134 35.104C27.7947 34.1653 28.1614 33.2707 28.5134 32.42C28.8947 31.5693 29.2027 30.8653 29.4374 30.308C29.5254 30.132 29.6574 29.824 29.8334 29.384C30.0094 28.9147 30.0974 28.5773 30.0974 28.372C30.0974 28.2253 30.068 28.064 30.0094 27.888C29.98 27.712 29.8627 27.624 29.6574 27.624C29.3347 27.624 28.9387 27.8147 28.4694 28.196C28.0294 28.5773 27.692 28.8853 27.4574 29.12C26.196 30.4987 25.096 32.068 24.1574 33.828C23.248 35.5587 22.5 37.3187 21.9134 39.108C21.8547 39.3427 21.8107 39.504 21.7814 39.592C21.752 39.68 21.62 39.812 21.3854 39.988C21.2974 40.0173 21.0187 40.164 20.5494 40.428C20.1094 40.692 19.684 40.9413 19.2734 41.176C18.8627 41.44 18.6427 41.572 18.6134 41.572ZM30.0407 53.408C29.894 53.408 29.5713 53.3787 29.0727 53.32C28.5447 53.2613 28.0607 53.1587 27.6207 53.012C27.1513 52.8947 26.9167 52.748 26.9167 52.572C26.9167 52.572 26.9167 52.5573 26.9167 52.528C26.9167 52.4987 26.9313 52.484 26.9607 52.484C26.99 52.484 27.0047 52.484 27.0047 52.484C27.0047 52.5133 27.0047 52.528 27.0047 52.528L27.3127 52.572C27.1953 52.308 27.1367 51.9707 27.1367 51.56C27.1367 51.3547 27.166 51.0907 27.2247 50.768C27.254 50.4747 27.3127 50.2253 27.4007 50.02C27.43 49.9613 27.5327 49.7853 27.7087 49.492C27.8847 49.1987 28.0753 48.92 28.2807 48.656C28.4567 48.392 28.5593 48.26 28.5887 48.26V48.304C28.5887 48.3333 28.486 48.5387 28.2807 48.92C28.0753 49.3307 27.9727 49.7413 27.9727 50.152C27.9727 50.6213 28.1487 51.0613 28.5007 51.472C28.8233 51.8827 29.234 52.2053 29.7327 52.44C30.2313 52.704 30.7007 52.836 31.1407 52.836C31.9913 52.836 32.8127 52.484 33.6047 51.78C34.3967 51.076 35.1593 50.152 35.8927 49.008C36.626 47.864 37.3007 46.6027 37.9167 45.224C38.562 43.8453 39.134 42.4667 39.6327 41.088C40.1313 39.7093 40.5713 38.4333 40.9527 37.26C41.334 36.0867 41.6273 35.1627 41.8327 34.488C41.8327 34.4587 41.8327 34.444 41.8327 34.444C41.862 34.4147 41.8767 34.3853 41.8767 34.356C41.8767 34.268 41.8473 34.224 41.7887 34.224C41.7593 34.224 41.7153 34.2533 41.6567 34.312C40.7473 35.5147 39.8087 36.7027 38.8407 37.876C37.902 39.02 36.7727 39.9733 35.4527 40.736C35.2473 40.8533 35.0127 40.9707 34.7487 41.088C34.4847 41.2053 34.2353 41.264 34.0007 41.264C33.4433 41.264 33.1647 40.7947 33.1647 39.856C33.1647 39.2107 33.3553 38.404 33.7367 37.436C34.1473 36.4387 34.6167 35.368 35.1447 34.224C35.702 33.08 36.1713 31.9653 36.5527 30.88C36.9633 29.7653 37.1687 28.768 37.1687 27.888C37.1687 27.7707 37.1393 27.6387 37.0807 27.492C37.0513 27.3453 36.9633 27.272 36.8167 27.272C36.6113 27.272 36.3327 27.4187 35.9807 27.712C35.6287 27.976 35.262 28.3133 34.8807 28.724C34.4993 29.1347 34.162 29.5307 33.8687 29.912C33.6047 30.2933 33.4287 30.5867 33.3407 30.792C33.2233 30.7333 33.1647 30.66 33.1647 30.572C33.1647 30.308 33.414 29.8973 33.9127 29.34C34.4407 28.7533 35.0567 28.152 35.7607 27.536C36.4647 26.8907 37.1393 26.348 37.7847 25.908C38.43 25.468 38.8847 25.248 39.1487 25.248C39.4713 25.248 39.6767 25.468 39.7647 25.908C39.882 26.348 39.9407 26.6853 39.9407 26.92C39.9407 27.4773 39.8087 28.1813 39.5447 29.032C39.31 29.8533 39.002 30.748 38.6207 31.716C38.2393 32.6547 37.858 33.5493 37.4767 34.4C37.1247 35.2213 36.8313 35.9107 36.5967 36.468C36.538 36.6733 36.406 37.0107 36.2007 37.48C36.0247 37.92 35.9367 38.272 35.9367 38.536C35.9367 38.976 36.098 39.196 36.4207 39.196C36.7433 39.196 37.1247 39.0053 37.5647 38.624C38.034 38.2133 38.3713 37.8907 38.5767 37.656C39.838 36.2773 40.9233 34.7227 41.8327 32.992C42.7713 31.2613 43.534 29.5013 44.1207 27.712C44.2087 27.4773 44.2527 27.316 44.2527 27.228C44.282 27.1107 44.414 26.9787 44.6487 26.832C44.7367 26.7733 45.0007 26.612 45.4407 26.348C45.91 26.084 46.3647 25.8347 46.8047 25.6C47.2447 25.336 47.4647 25.204 47.4647 25.204C47.494 25.204 47.5087 25.2333 47.5087 25.292C47.5087 25.38 47.4647 25.4827 47.3767 25.6C47.2887 25.7173 47.2153 25.8053 47.1567 25.864C46.922 26.2453 46.6727 26.7587 46.4087 27.404C46.174 28.0493 45.9393 28.6947 45.7047 29.34C45.4993 29.9853 45.3233 30.528 45.1767 30.968C44.59 32.728 44.018 34.488 43.4607 36.248C42.9033 38.008 42.3167 39.7533 41.7007 41.484C41.2607 42.716 40.674 44.0213 39.9407 45.4C39.2367 46.7787 38.4007 48.0693 37.4327 49.272C36.4647 50.504 35.3647 51.5013 34.1327 52.264C32.9007 53.0267 31.5367 53.408 30.0407 53.408Z"/>
<path d="M52.275 39.8C52.275 40.5 52.025 41.0833 51.525 41.55C51.0417 42.0167 50.4583 42.25 49.775 42.25C49.425 42.25 49.0917 42.1833 48.775 42.05C48.475 41.9333 48.2083 41.7667 47.975 41.55C47.7417 41.3333 47.5583 41.0833 47.425 40.8C47.2917 40.5 47.225 40.175 47.225 39.825C47.225 39.4917 47.2917 39.175 47.425 38.875C47.5583 38.575 47.7417 38.3167 47.975 38.1C48.2083 37.8667 48.475 37.6833 48.775 37.55C49.0917 37.4167 49.425 37.35 49.775 37.35C50.4583 37.35 51.0417 37.5833 51.525 38.05C52.025 38.5167 52.275 39.1 52.275 39.8ZM59.2525 27.95V42H54.9775V27.95H49.9775V24.3H64.2525V27.95H59.2525ZM82.6471 33.075C82.6471 34.475 82.4054 35.7583 81.9221 36.925C81.4387 38.075 80.7637 39.0667 79.8971 39.9C79.0471 40.7167 78.0304 41.35 76.8471 41.8C75.6637 42.25 74.3804 42.475 72.9971 42.475C71.6137 42.475 70.3304 42.25 69.1471 41.8C67.9804 41.35 66.9637 40.7167 66.0971 39.9C65.2471 39.0667 64.5804 38.075 64.0971 36.925C63.6137 35.7583 63.3721 34.475 63.3721 33.075C63.3721 31.6583 63.6137 30.3833 64.0971 29.25C64.5804 28.1 65.2471 27.125 66.0971 26.325C66.9637 25.525 67.9804 24.9083 69.1471 24.475C70.3304 24.0417 71.6137 23.825 72.9971 23.825C74.3804 23.825 75.6637 24.0417 76.8471 24.475C78.0304 24.9083 79.0471 25.525 79.8971 26.325C80.7637 27.125 81.4387 28.1 81.9221 29.25C82.4054 30.3833 82.6471 31.6583 82.6471 33.075ZM78.0721 33.075C78.0721 32.3083 77.9471 31.5917 77.6971 30.925C77.4471 30.2583 77.0971 29.6917 76.6471 29.225C76.2137 28.7417 75.6804 28.3667 75.0471 28.1C74.4304 27.8167 73.7471 27.675 72.9971 27.675C72.2471 27.675 71.5637 27.8167 70.9471 28.1C70.3304 28.3667 69.7971 28.7417 69.3471 29.225C68.8971 29.6917 68.5471 30.2583 68.2971 30.925C68.0637 31.5917 67.9471 32.3083 67.9471 33.075C67.9471 33.875 68.0721 34.6167 68.3221 35.3C68.5721 35.9667 68.9137 36.5417 69.3471 37.025C69.7971 37.5083 70.3304 37.8917 70.9471 38.175C71.5637 38.4417 72.2471 38.575 72.9971 38.575C73.7471 38.575 74.4304 38.4417 75.0471 38.175C75.6637 37.8917 76.1971 37.5083 76.6471 37.025C77.0971 36.5417 77.4471 35.9667 77.6971 35.3C77.9471 34.6167 78.0721 33.875 78.0721 33.075ZM83.9617 42V24.3H88.2617V42H83.9617ZM90.4207 42V24.3H94.7207V42H90.4207ZM110.68 36.85C110.68 37.8167 110.488 38.6333 110.105 39.3C109.721 39.95 109.213 40.475 108.58 40.875C107.946 41.275 107.221 41.5667 106.405 41.75C105.605 41.9167 104.78 42 103.93 42H96.8797V24.3H103.93C104.613 24.3 105.313 24.375 106.03 24.525C106.746 24.6583 107.396 24.9 107.98 25.25C108.563 25.5833 109.038 26.0417 109.405 26.625C109.771 27.2083 109.955 27.95 109.955 28.85C109.955 29.8333 109.688 30.65 109.155 31.3C108.621 31.9333 107.921 32.3917 107.055 32.675V32.725C107.555 32.8083 108.021 32.9667 108.455 33.2C108.905 33.4167 109.288 33.7 109.605 34.05C109.938 34.4 110.196 34.8083 110.38 35.275C110.58 35.7417 110.68 36.2667 110.68 36.85ZM105.83 29.425C105.83 28.825 105.596 28.3917 105.13 28.125C104.68 27.8417 104.005 27.7 103.105 27.7H101.005V31.35H103.305C104.105 31.35 104.721 31.1917 105.155 30.875C105.605 30.5417 105.83 30.0583 105.83 29.425ZM106.405 36.45C106.405 35.7167 106.13 35.2083 105.58 34.925C105.03 34.6417 104.296 34.5 103.38 34.5H101.005V38.55H103.405C103.738 38.55 104.08 38.525 104.43 38.475C104.796 38.4083 105.121 38.3 105.405 38.15C105.705 38 105.946 37.7917 106.13 37.525C106.313 37.2417 106.405 36.8833 106.405 36.45ZM112.006 42V24.3H116.306V42H112.006ZM126.04 27.95V42H121.765V27.95H116.765V24.3H131.04V27.95H126.04ZM133.988 39.8C133.988 40.5 133.738 41.0833 133.238 41.55C132.755 42.0167 132.171 42.25 131.488 42.25C131.138 42.25 130.805 42.1833 130.488 42.05C130.188 41.9333 129.921 41.7667 129.688 41.55C129.455 41.3333 129.271 41.0833 129.138 40.8C129.005 40.5 128.938 40.175 128.938 39.825C128.938 39.4917 129.005 39.175 129.138 38.875C129.271 38.575 129.455 38.3167 129.688 38.1C129.921 37.8667 130.188 37.6833 130.488 37.55C130.805 37.4167 131.138 37.35 131.488 37.35C132.171 37.35 132.755 37.5833 133.238 38.05C133.738 38.5167 133.988 39.1 133.988 39.8ZM143.883 33.575C143.65 33.275 143.333 33.0333 142.933 32.85C142.533 32.6667 142.125 32.575 141.708 32.575C141.275 32.575 140.883 32.6667 140.533 32.85C140.183 33.0167 139.883 33.25 139.633 33.55C139.383 33.8333 139.183 34.1667 139.033 34.55C138.9 34.9333 138.833 35.3417 138.833 35.775C138.833 36.2083 138.9 36.6167 139.033 37C139.166 37.3833 139.358 37.725 139.608 38.025C139.875 38.3083 140.183 38.5333 140.533 38.7C140.9 38.8667 141.308 38.95 141.758 38.95C142.175 38.95 142.583 38.875 142.983 38.725C143.4 38.5583 143.733 38.325 143.983 38.025L146.258 40.8C145.741 41.3 145.075 41.6917 144.258 41.975C143.441 42.2583 142.575 42.4 141.658 42.4C140.675 42.4 139.758 42.25 138.908 41.95C138.058 41.65 137.316 41.2167 136.683 40.65C136.066 40.0667 135.575 39.3667 135.208 38.55C134.858 37.7333 134.683 36.8083 134.683 35.775C134.683 34.7583 134.858 33.8417 135.208 33.025C135.575 32.2083 136.066 31.5167 136.683 30.95C137.316 30.3667 138.058 29.925 138.908 29.625C139.758 29.3083 140.666 29.15 141.633 29.15C142.083 29.15 142.525 29.1917 142.958 29.275C143.408 29.3583 143.833 29.475 144.233 29.625C144.65 29.7583 145.025 29.9333 145.358 30.15C145.708 30.35 146.008 30.575 146.258 30.825L143.883 33.575ZM159.581 35.725C159.581 36.7417 159.398 37.6667 159.031 38.5C158.665 39.3167 158.165 40.0167 157.531 40.6C156.898 41.1667 156.165 41.6083 155.331 41.925C154.498 42.2417 153.606 42.4 152.656 42.4C151.723 42.4 150.831 42.2417 149.981 41.925C149.148 41.6083 148.415 41.1667 147.781 40.6C147.165 40.0167 146.673 39.3167 146.306 38.5C145.94 37.6667 145.756 36.7417 145.756 35.725C145.756 34.7083 145.94 33.7917 146.306 32.975C146.673 32.1583 147.165 31.4667 147.781 30.9C148.415 30.3333 149.148 29.9 149.981 29.6C150.831 29.3 151.723 29.15 152.656 29.15C153.606 29.15 154.498 29.3 155.331 29.6C156.165 29.9 156.898 30.3333 157.531 30.9C158.165 31.4667 158.665 32.1583 159.031 32.975C159.398 33.7917 159.581 34.7083 159.581 35.725ZM155.631 35.725C155.631 35.325 155.565 34.9333 155.431 34.55C155.298 34.1667 155.106 33.8333 154.856 33.55C154.606 33.25 154.298 33.0083 153.931 32.825C153.565 32.6417 153.14 32.55 152.656 32.55C152.173 32.55 151.748 32.6417 151.381 32.825C151.015 33.0083 150.706 33.25 150.456 33.55C150.223 33.8333 150.04 34.1667 149.906 34.55C149.79 34.9333 149.731 35.325 149.731 35.725C149.731 36.125 149.79 36.5167 149.906 36.9C150.04 37.2833 150.231 37.6333 150.481 37.95C150.731 38.25 151.04 38.4917 151.406 38.675C151.773 38.8583 152.198 38.95 152.681 38.95C153.165 38.95 153.59 38.8583 153.956 38.675C154.323 38.4917 154.631 38.25 154.881 37.95C155.131 37.6333 155.315 37.2833 155.431 36.9C155.565 36.5167 155.631 36.125 155.631 35.725ZM176.577 42V35.2C176.577 34.85 176.552 34.5167 176.502 34.2C176.452 33.8667 176.36 33.5833 176.227 33.35C176.094 33.1167 175.91 32.9333 175.677 32.8C175.46 32.65 175.169 32.575 174.802 32.575C174.452 32.575 174.144 32.65 173.877 32.8C173.627 32.95 173.41 33.15 173.227 33.4C173.06 33.65 172.935 33.9417 172.852 34.275C172.769 34.5917 172.727 34.925 172.727 35.275V42H168.627V34.9C168.627 34.1833 168.485 33.6167 168.202 33.2C167.919 32.7833 167.469 32.575 166.852 32.575C166.202 32.575 165.694 32.8333 165.327 33.35C164.977 33.8667 164.802 34.5 164.802 35.25V42H160.677V29.55H164.652V31.275H164.702C164.852 31.0083 165.035 30.75 165.252 30.5C165.485 30.25 165.76 30.0333 166.077 29.85C166.394 29.65 166.744 29.4917 167.127 29.375C167.527 29.2583 167.96 29.2 168.427 29.2C169.327 29.2 170.085 29.3833 170.702 29.75C171.335 30.1167 171.827 30.6417 172.177 31.325C172.594 30.675 173.127 30.1583 173.777 29.775C174.427 29.3917 175.219 29.2 176.152 29.2C177.002 29.2 177.71 29.3583 178.277 29.675C178.86 29.975 179.327 30.375 179.677 30.875C180.027 31.3583 180.277 31.9083 180.427 32.525C180.594 33.125 180.677 33.7167 180.677 34.3V42H176.577Z"/>
</svg>
